<svg xmlns="http://www.w3.org/2000/svg" width="70" height="70" viewBox="0 0 70 70">
  <g id="Group_198" data-name="Group 198" transform="translate(-140 -505)">
    <circle id="Ellipse_9" data-name="Ellipse 9" cx="35" cy="35" r="35" transform="translate(140 505)" fill="#dfa465"/>
    <path id="money_1_" data-name="money (1)" d="M26.365,20.326H2.208a1.208,1.208,0,1,0,0,2.416H26.365a1.208,1.208,0,1,0,0-2.416Zm0,4.832H2.208a1.208,1.208,0,1,0,0,2.416H26.365a1.208,1.208,0,1,0,0-2.416ZM23.95,1H4.624A3.559,3.559,0,0,0,1,4.624v9.663A3.559,3.559,0,0,0,4.624,17.91H23.95a3.559,3.559,0,0,0,3.624-3.624V4.624A3.559,3.559,0,0,0,23.95,1ZM7.039,10.663A1.141,1.141,0,0,1,5.832,9.455,1.141,1.141,0,0,1,7.039,8.247,1.141,1.141,0,0,1,8.247,9.455,1.141,1.141,0,0,1,7.039,10.663Zm7.247,1.208h0A2.416,2.416,0,1,1,16.7,9.455,2.423,2.423,0,0,1,14.287,11.871Zm7.247-1.208a1.141,1.141,0,0,1-1.208-1.208,1.208,1.208,0,1,1,2.416,0A1.141,1.141,0,0,1,21.534,10.663Z" transform="translate(160.713 525.713)" fill="#fff"/>
  </g>
</svg>
