<svg xmlns="http://www.w3.org/2000/svg" width="70" height="70" viewBox="0 0 70 70">
  <g id="Group_199" data-name="Group 199" transform="translate(-140 -505)">
    <circle id="Ellipse_9" data-name="Ellipse 9" cx="35" cy="35" r="35" transform="translate(140 505)" fill="#dfa465"/>
    <g id="add" transform="translate(117.247 480.913)">
      <path id="Path_193" data-name="Path 193" d="M737.977,671.3v6.75a.986.986,0,1,0,1.972,0V671.3a.986.986,0,0,0-1.972,0Z" transform="translate(-670.655 -604.55)" fill="#fff"/>
      <path id="Path_194" data-name="Path 194" d="M643.139,768.107h6.75a.986.986,0,0,0,0-1.972h-6.75a.986.986,0,0,0,0,1.972Z" transform="translate(-578.207 -696.998)" fill="#fff"/>
      <circle id="Ellipse_10" data-name="Ellipse 10" cx="6.954" cy="6.954" r="6.954" transform="translate(48.898 44.18)" fill="#fff"/>
      <path id="Path_195" data-name="Path 195" d="M215.082,51.134q0,.3-.025.59c-.008.1-.019.193-.03.29.013-.1-.008.053-.009.06-.01.063-.021.126-.032.19a6.905,6.905,0,0,1-.312,1.141c-.032.088-.067.175-.1.262.039-.094-.021.047-.024.054-.019.043-.039.085-.058.127-.085.182-.18.36-.281.534s-.193.316-.3.468c-.052.076-.107.15-.162.224-.091.121.058-.073-.036.046-.038.048-.077.1-.117.143a7,7,0,0,1-.81.816c-.07.06-.142.118-.214.175.079-.062-.041.031-.047.035l-.112.082c-.163.117-.331.225-.5.328s-.324.182-.49.264a4.083,4.083,0,0,1-.482.209,6.912,6.912,0,0,1-1.138.32c-.094.018-.189.034-.284.048a.283.283,0,0,1-.061.008l-.145.016c-.212.021-.424.031-.637.033-.2,0-.394-.006-.591-.021-.1-.007-.194-.017-.29-.028a.283.283,0,0,1-.061-.008c-.063-.009-.127-.02-.19-.031a6.907,6.907,0,0,1-1.145-.3,4.107,4.107,0,0,1-.444-.181c-.183-.084-.361-.178-.536-.277s-.317-.191-.47-.3c-.076-.052-.151-.106-.225-.161-.005,0-.126-.1-.047-.035-.048-.038-.1-.077-.143-.116a7,7,0,0,1-.821-.8c-.06-.069-.119-.141-.177-.213-.095-.118.056.075-.036-.046-.028-.037-.055-.074-.082-.111-.118-.162-.227-.33-.331-.5s-.184-.322-.267-.488c-.042-.083-.081-.168-.119-.253,0-.006-.063-.147-.024-.054-.024-.058-.047-.116-.069-.174a6.427,6.427,0,0,1-.065-4.541c.031-.089.064-.176.1-.263,0-.006.062-.148.022-.055.018-.043.038-.085.057-.128.083-.184.175-.363.274-.538s.189-.318.292-.472c.051-.077.105-.152.16-.226.027-.037.055-.074.083-.111-.057.075.055-.068.066-.081a7,7,0,0,1,.8-.826,5.653,5.653,0,0,1,.866-.632c.158-.1.321-.186.486-.27.083-.042.167-.082.252-.121l.128-.057c-.088.038.083-.033.1-.039a6.907,6.907,0,0,1,1.132-.335,5.5,5.5,0,0,1,1.122-.122c.2,0,.4,0,.592.012.1.006.195.015.292.024l.145.017c-.1-.012.09.014.108.017a6.909,6.909,0,0,1,1.151.289,5.423,5.423,0,0,1,.988.444c.162.089.32.187.474.289.077.051.152.1.227.158l.111.082.01.007.072.057a7,7,0,0,1,.831.794c.061.069.121.139.179.21l.087.108c-.058-.074.052.07.062.084.119.161.23.328.334.5s.2.348.291.528c.042.083.081.168.119.253,0,.006.064.147.024.054.024.058.047.116.069.174a6.912,6.912,0,0,1,.336,1.182c.018.094.034.189.048.284.024.157-.011-.1.008.061.008.064.014.129.02.193.02.212.028.425.029.638a.493.493,0,1,0,.986,0,7.442,7.442,0,0,0-10.488-6.8,7.443,7.443,0,0,0-3.465,3.172,7.545,7.545,0,0,0-.833,4.874,7.411,7.411,0,0,0,2.239,4.176,7.524,7.524,0,0,0,4.413,1.988,7.423,7.423,0,0,0,4.708-1.145,7.519,7.519,0,0,0,3.426-6.268.493.493,0,0,0-.986,0Z" transform="translate(-152.77)" fill="#fff"/>
      <path id="Path_196" data-name="Path 196" d="M74.572,462.717a6.756,6.756,0,0,0,1,3.572H59.14a2.688,2.688,0,0,1-2.7-2.673v-5.731a8.558,8.558,0,0,1,3.905-7.18,11.045,11.045,0,0,0,17.253,0,8.565,8.565,0,0,1,3.658,5.15A6.866,6.866,0,0,0,74.572,462.717Z" transform="translate(-13.122 -392.678)" fill="#fff"/>
      <path id="Path_197" data-name="Path 197" d="M60.956,449.2a7.456,7.456,0,0,0,1.072,3.828l.426-.742H46.018a2.272,2.272,0,0,1-.986-.233,2.7,2.7,0,0,1-.239-.14c-.039-.025-.076-.052-.113-.079.081.058-.039-.032-.045-.036a2.709,2.709,0,0,1-.2-.188c-.032-.033-.063-.067-.093-.1-.012-.013-.123-.155-.066-.079a2.692,2.692,0,0,1-.279-.477c-.064-.138.033.088-.021-.054-.017-.044-.031-.088-.046-.133a2.673,2.673,0,0,1-.079-.322c0-.008-.022-.163-.01-.059-.006-.048-.009-.1-.012-.145s0-.1,0-.15v-5.506a10.878,10.878,0,0,1,.056-1.2c.015-.132.044-.315.08-.506.039-.209.088-.416.143-.621a7.748,7.748,0,0,1,.946-2.166c.108-.175.225-.345.346-.512s.188-.249.337-.424a8.613,8.613,0,0,1,.826-.842,6.971,6.971,0,0,1,.921-.7l-.6-.077a11.526,11.526,0,0,0,17.945,0l-.6.077a8.152,8.152,0,0,1,3.43,4.859l.476-.624a7.477,7.477,0,0,0-4.556,1.73,7.337,7.337,0,0,0-2.449,4.048,7.553,7.553,0,0,0-.171,1.581.493.493,0,1,0,.986,0q0-.3.025-.591c.008-.1.019-.194.031-.29-.013.1.009-.053.01-.06.01-.063.021-.127.033-.19a6.821,6.821,0,0,1,.317-1.142c.016-.044.033-.088.051-.131,0-.006.062-.149.022-.055.037-.086.076-.171.116-.255.086-.182.183-.359.285-.533s.2-.315.3-.466a4.1,4.1,0,0,1,.32-.41,6.339,6.339,0,0,1,3.84-2.173c.063-.011.127-.02.191-.03q-.077.01.013,0l.145-.016c.163-.016.326-.025.49-.03a.5.5,0,0,0,.476-.624,9.167,9.167,0,0,0-3.883-5.448.488.488,0,0,0-.6.077,10.688,10.688,0,0,1-4.1,3.147c-.137.061-.336.139-.529.21-.219.081-.442.152-.666.219a10.97,10.97,0,0,1-1.33.3,10.62,10.62,0,0,1-1.311.12,11.206,11.206,0,0,1-1.408-.046,8.975,8.975,0,0,1-1.016-.154c-.356-.071-.707-.163-1.054-.27a9.788,9.788,0,0,1-1.947-.83,10.553,10.553,0,0,1-1.684-1.152,11.112,11.112,0,0,1-1.507-1.547.488.488,0,0,0-.6-.077,9.131,9.131,0,0,0-3.383,3.979,9.7,9.7,0,0,0-.76,3.911v5.407a3.208,3.208,0,0,0,2.709,3.182,9.271,9.271,0,0,0,1.249.039H62.455a.5.5,0,0,0,.426-.742,6.433,6.433,0,0,1-.938-3.33.493.493,0,0,0-.986,0Z" transform="translate(0 -379.149)" fill="#fff"/>
    </g>
  </g>
</svg>
