<svg xmlns="http://www.w3.org/2000/svg" width="24.678" height="12.339" viewBox="0 0 24.678 12.339">
  <path id="link" d="M9.4,13.17A1.234,1.234,0,0,0,10.637,14.4h7.4a1.234,1.234,0,1,0,0-2.468h-7.4A1.234,1.234,0,0,0,9.4,13.17Zm2.468,3.7H8.17a3.7,3.7,0,1,1,0-7.4h3.7a1.234,1.234,0,1,0,0-2.468H8.17a6.17,6.17,0,1,0,0,12.339h3.7a1.234,1.234,0,1,0,0-2.468ZM20.509,7h-3.7a1.234,1.234,0,1,0,0,2.468h3.7a3.7,3.7,0,0,1,0,7.4h-3.7a1.234,1.234,0,1,0,0,2.468h3.7A6.17,6.17,0,0,0,20.509,7Z" transform="translate(-2 -7)" fill="#fff"/>
</svg>
